<svg t="1698647778457" class="icon" viewBox="0 0 1024 1024" version="1.1" xmlns="http://www.w3.org/2000/svg" p-id="7064" width="200" height="200"><path d="M290.773333 264.32a166.613333 166.613333 0 0 1-5.546666-86.826667 291.413333 291.413333 0 0 1 90.453333 45.653334 46.933333 46.933333 0 0 0 42.666667 7.68 408.533333 408.533333 0 0 1 230.826666 0 46.506667 46.506667 0 0 0 42.666667-7.68 291.413333 291.413333 0 0 1 90.453333-45.653334 165.76 165.76 0 0 1-5.546666 86.613334 46.933333 46.933333 0 0 0 8.96 48.64A170.666667 170.666667 0 0 1 832 426.666667c0 90.026667-84.053333 178.346667-219.093333 205.226666a42.666667 42.666667 0 0 0-21.333334 73.6A85.333333 85.333333 0 0 1 618.666667 768v128a42.666667 42.666667 0 0 0 85.333333 0v-128a169.386667 169.386667 0 0 0-14.293333-68.266667C818.56 655.146667 917.333333 554.666667 917.333333 426.666667a251.52 251.52 0 0 0-54.826666-154.453334 264.106667 264.106667 0 0 0 4.693333-97.066666 140.16 140.16 0 0 0-24.32-74.88c-25.386667-28.16-67.413333-11.52-97.28-1.28a391.253333 391.253333 0 0 0-90.666667 45.013333 495.786667 495.786667 0 0 0-243.2 0 395.306667 395.306667 0 0 0-90.666666-44.373333c-29.866667-10.24-71.893333-26.88-97.28 1.28a132.266667 132.266667 0 0 0-24.32 73.173333v1.706667a265.6 265.6 0 0 0 4.906666 97.28A250.88 250.88 0 0 0 149.333333 426.666667c0 128 98.773333 227.84 227.626667 272.64A170.666667 170.666667 0 0 0 362.666667 768l-7.253334 1.493333a117.76 117.76 0 0 1-64-5.333333c-32.426667-13.653333-49.28-48.213333-69.546666-74.666667a128 128 0 0 0-59.733334-46.293333 42.666667 42.666667 0 1 0-26.88 80.853333C159.786667 731.306667 176.213333 772.053333 192 789.333333a177.92 177.92 0 0 0 67.626667 51.84A197.546667 197.546667 0 0 0 362.666667 853.333333v42.666667a42.666667 42.666667 0 0 0 85.333333 0v-128a85.333333 85.333333 0 0 1 26.88-62.08 42.666667 42.666667 0 0 0-21.333333-73.6C318.72 605.653333 234.666667 517.333333 234.666667 426.666667a169.386667 169.386667 0 0 1 47.36-114.346667 47.36 47.36 0 0 0 8.746666-48z" p-id="7065"></path></svg>